HIERARCHY
ROOT	Hips
{
	OFFSET	0.000	0.000	0.000
	CHANNELS	6	Xposition	Yposition	Zposition	Yrotation	Xrotation	Zrotation
	JOINT	Chest
	{
		OFFSET	0.000	8.484	-3.948
		CHANNELS	3	Yrotation	Xrotation	Zrotation
		JOINT	Chest2
		{
			OFFSET	0.649	24.042	0.540
			CHANNELS	3	Yrotation	Xrotation	Zrotation
			JOINT	LeftCollar
			{
				OFFSET	7.689	16.215	2.455
				CHANNELS	3	Yrotation	Xrotation	Zrotation
				JOINT	LeftShoulder
				{
					OFFSET	13.460	0.000	0.000
					CHANNELS	3	Yrotation	Xrotation	Zrotation
					JOINT	LeftElbow
					{
						OFFSET	26.100	-0.000	0.000
						CHANNELS	3	Yrotation	Xrotation	Zrotation
						JOINT	LeftWrist
						{
							OFFSET	28.740	-0.000	-0.000
							CHANNELS	3	Yrotation	Xrotation	Zrotation
							End Site
							{
								OFFSET	0.006	-10.922	-0.000
							}
						}
					}
				}
			}
			JOINT	Neck
			{
				OFFSET	0.649	24.042	0.540
				CHANNELS	3	Yrotation	Xrotation	Zrotation
				JOINT	Head
				{
					OFFSET	-0.000	10.452	0.000
					CHANNELS	3	Yrotation	Xrotation	Zrotation
					End Site
					{
						OFFSET	-0.012	20.534	-0.005
					}
				}
			}
			JOINT	RightCollar
			{
				OFFSET	-6.391	16.215	2.455
				CHANNELS	3	Yrotation	Xrotation	Zrotation
				JOINT	RightShoulder
				{
					OFFSET	-13.460	-0.000	-0.000
					CHANNELS	3	Yrotation	Xrotation	Zrotation
					JOINT	RightElbow
					{
						OFFSET	-26.100	-0.000	-0.000
						CHANNELS	3	Yrotation	Xrotation	Zrotation
						JOINT	RightWrist
						{
							OFFSET	-28.740	-0.000	-0.000
							CHANNELS	3	Yrotation	Xrotation	Zrotation
							End Site
							{
								OFFSET	0.006	-10.922	0.000
							}
						}
					}
				}
			}
		}
	}
	JOINT	LeftHip
	{
		OFFSET	8.100	-0.000	0.000
		CHANNELS	3	Yrotation	Xrotation	Zrotation
		JOINT	LeftKnee
		{
			OFFSET	-0.000	-43.200	0.000
			CHANNELS	3	Yrotation	Xrotation	Zrotation
			JOINT	LeftAnkle
			{
				OFFSET	0.062	-43.300	0.000
				CHANNELS	3	Yrotation	Xrotation	Zrotation
				End Site
				{
					OFFSET	-0.000	-6.231	13.152
				}
			}
		}
	}
	JOINT	RightHip
	{
		OFFSET	-8.100	0.000	-0.000
		CHANNELS	3	Yrotation	Xrotation	Zrotation
		JOINT	RightKnee
		{
			OFFSET	0.000	-43.200	0.000
			CHANNELS	3	Yrotation	Xrotation	Zrotation
			JOINT	RightAnkle
			{
				OFFSET	-0.063	-43.300	0.000
				CHANNELS	3	Yrotation	Xrotation	Zrotation
				End Site
				{
					OFFSET	-0.000	-6.231	13.152
				}
			}
		}
	}
}
MOTION
Frames:	17
Frame Time:	0.010
-0.000	94.000	0.000	0.000	-0.000	0.000	-0.000	0.000	-0.000	0.000	-0.000	0.000	0.000	-0.000	0.000	0.000	-0.000	0.000	0.000	-0.000	0.000	-0.000	-0.000	90.000	0.000	-0.000	0.000	0.000	-0.000	0.000	0.000	-0.000	-0.000	0.000	-0.000	0.000	0.000	-0.000	0.000	-0.000	0.000	270.000	0.000	0.000	0.000	0.000	-0.000	0.000	0.000	-0.000	0.000	0.000	0.000	0.000	0.000	-0.000	0.000	0.000	-0.000	0.000	
-0.000	94.000	0.000	0.000	-0.000	0.000	-0.000	0.000	-0.000	0.000	-0.000	0.000	0.000	-0.000	0.000	0.000	-0.000	0.000	0.000	-0.000	0.000	-0.000	-0.000	90.000	0.000	-0.000	0.000	0.000	-0.000	0.000	0.000	-0.000	-0.000	0.000	-0.000	0.000	0.000	-0.000	0.000	-0.000	0.000	270.000	0.000	0.000	0.000	0.000	-0.000	0.000	0.000	-0.000	0.000	0.000	0.000	0.000	0.000	-0.000	0.000	0.000	-0.000	0.000	
-0.000	94.000	0.000	0.000	-0.000	0.000	-0.000	0.000	-0.000	0.000	-0.000	0.000	0.000	-0.000	0.000	0.000	-0.000	0.000	0.000	-0.000	0.000	-0.000	-0.000	90.000	0.000	-0.000	0.000	0.000	-0.000	0.000	0.000	-0.000	-0.000	0.000	-0.000	0.000	0.000	-0.000	0.000	-0.000	0.000	270.000	0.000	0.000	0.000	0.000	-0.000	0.000	0.000	-0.000	0.000	0.000	0.000	0.000	0.000	-0.000	0.000	0.000	-0.000	0.000	
-0.000	94.000	0.000	0.000	-0.000	0.000	-0.000	0.000	-0.000	0.000	-0.000	0.000	0.000	-0.000	0.000	0.000	-0.000	0.000	0.000	-0.000	0.000	-0.000	-0.000	90.000	0.000	-0.000	0.000	0.000	-0.000	0.000	0.000	-0.000	-0.000	0.000	-0.000	0.000	0.000	-0.000	0.000	-0.000	0.000	270.000	0.000	0.000	0.000	0.000	-0.000	0.000	0.000	-0.000	0.000	0.000	0.000	0.000	0.000	-0.000	0.000	0.000	-0.000	0.000	
-0.000	94.000	0.000	0.000	-0.000	0.000	-0.000	0.000	-0.000	0.000	-0.000	0.000	0.000	-0.000	0.000	0.000	-0.000	0.000	0.000	-0.000	0.000	-0.000	-0.000	90.000	0.000	-0.000	0.000	0.000	-0.000	0.000	0.000	-0.000	-0.000	0.000	-0.000	0.000	0.000	-0.000	0.000	-0.000	0.000	270.000	0.000	0.000	0.000	0.000	-0.000	0.000	0.000	-0.000	0.000	0.000	0.000	0.000	0.000	-0.000	0.000	0.000	-0.000	0.000	
-0.000	94.000	0.000	0.000	-0.000	0.000	-0.000	0.000	-0.000	0.000	-0.000	0.000	0.000	-0.000	0.000	0.000	-0.000	0.000	0.000	-0.000	0.000	-0.000	-0.000	90.000	0.000	-0.000	0.000	0.000	-0.000	0.000	0.000	-0.000	-0.000	0.000	-0.000	0.000	0.000	-0.000	0.000	-0.000	0.000	270.000	0.000	0.000	0.000	0.000	-0.000	0.000	0.000	-0.000	0.000	0.000	0.000	0.000	0.000	-0.000	0.000	0.000	-0.000	0.000	
-0.000	94.000	0.000	0.000	-0.000	0.000	-0.000	0.000	-0.000	0.000	-0.000	0.000	0.000	-0.000	0.000	0.000	-0.000	0.000	0.000	-0.000	0.000	-0.000	-0.000	90.000	0.000	-0.000	0.000	0.000	-0.000	0.000	0.000	-0.000	-0.000	0.000	-0.000	0.000	0.000	-0.000	0.000	-0.000	0.000	270.000	0.000	0.000	0.000	0.000	-0.000	0.000	0.000	-0.000	0.000	0.000	0.000	0.000	0.000	-0.000	0.000	0.000	-0.000	0.000	
-0.000	94.000	0.000	0.000	-0.000	0.000	-0.000	0.000	-0.000	0.000	-0.000	0.000	0.000	-0.000	0.000	0.000	-0.000	0.000	0.000	-0.000	0.000	-0.000	-0.000	90.000	0.000	-0.000	0.000	0.000	-0.000	0.000	0.000	-0.000	-0.000	0.000	-0.000	0.000	0.000	-0.000	0.000	-0.000	0.000	270.000	0.000	0.000	0.000	0.000	-0.000	0.000	0.000	-0.000	0.000	0.000	0.000	0.000	0.000	-0.000	0.000	0.000	-0.000	0.000	
-0.000	94.000	0.000	0.000	-0.000	0.000	-0.000	0.000	-0.000	0.000	-0.000	0.000	0.000	-0.000	0.000	0.000	-0.000	0.000	0.000	-0.000	0.000	-0.000	-0.000	90.000	0.000	-0.000	0.000	0.000	-0.000	0.000	0.000	-0.000	-0.000	0.000	-0.000	0.000	0.000	-0.000	0.000	-0.000	0.000	270.000	0.000	0.000	0.000	0.000	-0.000	0.000	0.000	-0.000	0.000	0.000	0.000	0.000	0.000	-0.000	0.000	0.000	-0.000	0.000	
-0.000	94.000	0.000	0.000	-0.000	0.000	-0.000	0.000	-0.000	0.000	-0.000	0.000	0.000	-0.000	0.000	0.000	-0.000	0.000	0.000	-0.000	0.000	-0.000	-0.000	90.000	0.000	-0.000	0.000	0.000	-0.000	0.000	0.000	-0.000	-0.000	0.000	-0.000	0.000	0.000	-0.000	0.000	-0.000	0.000	270.000	0.000	0.000	0.000	0.000	-0.000	0.000	0.000	-0.000	0.000	0.000	0.000	0.000	0.000	-0.000	0.000	0.000	-0.000	0.000	
-0.000	94.000	0.000	0.000	-0.000	0.000	-0.000	0.000	-0.000	0.000	-0.000	0.000	0.000	-0.000	0.000	0.000	-0.000	0.000	0.000	-0.000	0.000	-0.000	-0.000	90.000	0.000	-0.000	0.000	0.000	-0.000	0.000	0.000	-0.000	-0.000	0.000	-0.000	0.000	0.000	-0.000	0.000	-0.000	0.000	270.000	0.000	0.000	0.000	0.000	-0.000	0.000	0.000	-0.000	0.000	0.000	0.000	0.000	0.000	-0.000	0.000	0.000	-0.000	0.000	
-0.000	94.000	0.000	0.000	-0.000	0.000	-0.000	0.000	-0.000	0.000	-0.000	0.000	0.000	-0.000	0.000	0.000	-0.000	0.000	0.000	-0.000	0.000	-0.000	-0.000	90.000	0.000	-0.000	0.000	0.000	-0.000	0.000	0.000	-0.000	-0.000	0.000	-0.000	0.000	0.000	-0.000	0.000	-0.000	0.000	270.000	0.000	0.000	0.000	0.000	-0.000	0.000	0.000	-0.000	0.000	0.000	0.000	0.000	0.000	-0.000	0.000	0.000	-0.000	0.000	
4.947	89.756	4.238	-79.994	-31.808	36.531	-3.512	7.579	-10.198	-8.526	14.492	-21.287	-46.382	40.123	-33.805	-67.267	-70.068	21.860	-68.504	-7.687	-16.178	36.492	-6.276	88.209	2.647	5.372	3.120	2.647	5.372	3.120	26.987	55.799	18.459	71.497	-52.148	-24.423	15.015	34.878	-10.402	-4.968	-12.356	253.869	30.729	-63.539	-35.044	-69.862	-27.616	-104.208	137.867	39.156	-4.315	52.307	-34.477	-67.529	51.282	-10.074	109.855	-123.307	7.178	-10.851	
4.947	89.756	4.238	-79.994	-31.808	36.531	-3.512	7.579	-10.198	-8.526	14.492	-21.287	-46.382	40.123	-33.805	-67.267	-70.068	21.860	-68.504	-7.687	-16.178	36.492	-6.276	88.209	2.647	5.372	3.120	2.647	5.372	3.120	26.987	55.799	18.459	71.497	-52.148	-24.423	15.015	34.878	-10.402	-4.968	-12.356	253.869	30.729	-63.539	-35.044	-69.862	-27.616	-104.208	137.867	39.156	-4.315	52.307	-34.477	-67.529	51.282	-10.074	109.855	-123.307	7.178	-10.851	
4.945	89.757	4.238	-80.017	-31.820	36.533	-3.510	7.584	-10.195	-8.523	14.504	-21.283	-46.393	40.130	-33.809	-67.249	-70.073	21.843	-68.520	-7.703	-16.171	36.489	-6.273	88.203	2.644	5.375	3.120	2.644	5.375	3.120	26.976	55.798	18.456	71.496	-52.115	-24.425	15.019	34.876	-10.388	-4.979	-12.374	253.881	30.711	-63.528	-35.023	-69.875	-27.614	-104.210	137.872	39.158	-4.315	52.294	-34.478	-67.514	51.277	-10.077	109.848	-123.297	7.187	-10.852	
4.943	89.757	4.239	-80.033	-31.823	36.532	-3.508	7.585	-10.193	-8.520	14.506	-21.279	-46.429	40.138	-33.822	-67.237	-70.085	21.847	-68.534	-7.712	-16.163	36.492	-6.266	88.201	2.640	5.378	3.120	2.640	5.378	3.120	26.939	55.787	18.445	71.495	-52.069	-24.415	15.031	34.864	-10.365	-4.986	-12.379	253.887	30.704	-63.527	-35.012	-69.884	-27.612	-104.213	137.876	39.160	-4.316	52.289	-34.483	-67.510	51.259	-10.077	109.834	-123.289	7.196	-10.867	
4.942	89.756	4.244	-80.061	-31.823	36.532	-3.507	7.586	-10.189	-8.516	14.508	-21.269	-46.457	40.133	-33.842	-67.180	-70.072	21.793	-68.575	-7.719	-16.174	36.498	-6.266	88.210	2.626	5.390	3.119	2.626	5.390	3.119	26.898	55.781	18.413	71.498	-52.019	-24.415	15.054	34.845	-10.320	-5.009	-12.350	253.875	30.728	-63.534	-35.047	-69.913	-27.596	-104.223	137.888	39.164	-4.319	52.287	-34.488	-67.526	51.238	-10.108	109.843	-123.281	7.205	-10.863	
